<?xml version="1.0" encoding="UTF-8"?>
<svg xmlns="http://www.w3.org/2000/svg" width="1224" height="1428" viewBox="0 0 1224 1428" fill="none">
  <path d="M0 0C0 0 117.825 320.663.5 677C96.6667 677 289 677 289 677V285.5L558 677H795L1224 677V0H0Z" fill="black"/>
  <path d="M289 677V1061.5L578.5 677H289Z" fill="black"/>
  <path d="M578.5 677C578.5 677 676.644 913.5 795 913.5C676.644 913.5 578.5 1428 578.5 1428H806C806 1428 903.5 913.5 1022.5 913.5C903.5 913.5 806 677 806 677H578.5Z" fill="black"/>
  <path d="M1022.5 913.5V1428H1224V677L1022.5 913.5Z" fill="black"/>
</svg>