<svg id="svg" xmlns="http://www.w3.org/2000/svg" xmlns:xlink="http://www.w3.org/1999/xlink" width="400" height="400" viewBox="0, 0, 400,400"><g id="svgg"><path id="path0" d="M198.154 25.808 C 196.330 26.360,195.112 28.133,192.933 33.410 C 183.659 55.869,169.781 73.467,134.390 107.652 C 98.281 142.530,84.674 160.133,75.640 183.653 C 65.573 209.862,64.120 241.889,71.728 269.875 C 86.108 322.776,131.402 361.882,185.156 367.808 C 276.017 377.824,348.492 296.389,330.465 204.534 C 325.670 180.102,314.569 159.477,293.756 136.328 C 291.342 133.643,279.582 121.689,267.623 109.766 C 226.712 68.973,216.841 56.544,207.804 34.449 C 204.382 26.081,202.582 24.469,198.154 25.808 M203.203 84.420 C 207.970 85.424,210.925 87.604,217.037 94.630 C 219.139 97.046,226.673 104.912,233.779 112.109 C 240.885 119.307,250.442 129.096,255.015 133.864 L 263.331 142.533 262.036 142.722 C 261.325 142.826,258.809 143.109,256.445 143.350 C 234.630 145.578,224.738 155.031,217.195 180.858 C 210.408 204.096,200.398 235.731,199.981 235.258 C 199.837 235.095,198.886 232.324,197.868 229.102 C 196.849 225.879,195.611 222.012,195.115 220.508 C 194.619 219.004,193.219 214.609,192.003 210.742 C 190.787 206.875,189.640 203.271,189.455 202.734 C 188.739 200.657,187.060 195.111,184.195 185.352 C 180.555 172.957,179.615 170.220,177.621 166.211 C 170.334 151.562,159.139 144.434,141.360 143.125 C 139.345 142.977,137.368 142.738,136.967 142.594 C 136.374 142.381,140.442 138.078,158.842 119.455 C 171.274 106.872,183.467 94.479,185.938 91.914 C 192.568 85.033,196.992 83.112,203.203 84.420 M280.861 164.675 C 292.613 167.348,303.561 188.476,308.173 217.383 C 310.943 234.744,308.304 256.444,301.175 274.931 C 288.892 306.780,252.773 339.283,237.260 332.446 C 229.193 328.890,228.559 327.468,215.647 283.984 C 214.403 279.795,213.331 276.191,213.264 275.977 C 213.025 275.205,215.046 268.594,222.515 245.703 C 238.116 197.893,240.054 192.188,240.701 192.188 C 240.863 192.188,241.044 214.028,241.103 240.723 L 241.211 289.258 242.123 291.517 C 245.054 298.780,253.526 302.718,261.705 300.621 C 269.121 298.719,278.906 289.355,278.906 284.160 L 278.906 282.081 276.041 279.740 C 269.655 274.522,266.578 269.627,264.713 261.719 L 263.746 257.617 263.523 218.555 C 263.331 184.776,263.379 179.149,263.883 176.953 C 265.655 169.229,269.233 165.556,276.172 164.340 C 277.901 164.037,278.124 164.053,280.861 164.675 M126.890 165.274 C 131.412 166.802,134.793 170.864,135.893 176.093 C 136.787 180.343,136.475 256.384,135.545 260.948 C 133.825 269.388,131.111 273.802,123.633 280.323 C 119.194 284.194,119.760 286.262,127.309 293.760 C 138.531 304.906,154.071 303.311,158.464 290.562 C 158.906 289.278,158.998 280.603,158.989 240.573 C 158.983 210.609,159.118 192.224,159.344 192.364 C 160.142 192.857,162.719 200.475,178.969 250.391 C 180.473 255.010,182.195 260.283,182.796 262.109 C 184.425 267.062,186.427 274.296,186.416 275.190 C 186.390 277.315,173.681 319.500,172.028 322.947 C 165.128 337.341,153.092 336.781,133.594 321.158 C 95.969 291.011,81.505 241.746,96.875 196.094 C 104.890 172.287,115.474 161.419,126.890 165.274 M201.550 307.272 C 202.174 309.395,203.732 314.473,205.011 318.555 C 206.291 322.637,208.160 328.613,209.164 331.836 C 210.167 335.059,211.422 338.906,211.951 340.386 C 212.480 341.866,212.834 343.156,212.737 343.252 C 211.432 344.558,188.530 344.910,187.264 343.644 C 187.153 343.533,187.849 341.095,188.811 338.225 C 189.773 335.356,191.551 329.844,192.762 325.977 C 197.075 312.205,200.081 303.076,200.247 303.242 C 200.340 303.335,200.926 305.148,201.550 307.272 " stroke="none" fill="#000000" fill-rule="evenodd"></path></g></svg>