<?xml version="1.0" encoding="UTF-8"?>
<svg id="Layer_1" data-name="Layer 1" xmlns="http://www.w3.org/2000/svg" viewBox="0 0 884.67 1058.05">
  <defs>
    <style>
      .cls-1 {
        fill: #fff;
      }
    </style>
  </defs>
  <path class="cls-1" d="M760.46,1058.04H0V0h884.67v1058.04h-119.98c31.94-.53,68.05-9.62,99.86-14.63l17.58-4.8-78.16,9.28c-19.26.07-39.99,2.22-59.17.89-1.02-.07-7.99-.48-7.99-.88V127.61c-17.85.81-35.81,3.04-53.39,6.18-43.1,7.71-75.7,20.38-78.47,70.26l.04,815.12c-.76.79-17.93-6.76-20.31-8.17l.07-304.96c-7.45-85.66-127.22-83.72-131.88,4.23l-.38,213.41-19.06-18.96c-1.84-102.83-.32-206.3-.76-309.38-4.85-76.27-108.2-86.42-128.48-17.73-7.98,27.04,1.66,86.08,7.88,114.68,44.76,205.85,235.21,367.24,448.41,365.76ZM432.62,135.21l19.48,18.97c2.47,105.3-.97,211.41,1.74,316.85,12,78.88,127.71,72.85,130.9-7.47,2.4-60.33-18.64-139.85-44.09-194.29C459.7,96.13,268.79-20.18,75.74,6.04c-22.34,3.03-49.62,6.97-71.03,13.47-.97.29-3.14.31-3.02,1.61,49.06-6.36,98.19-14.13,147.86-10.13v920.29c19.55-.77,39.14-3.47,58.32-7.16,25.91-4.98,48.33-10.05,62.86-34.31,4.1-6.85,9.78-21.26,9.78-29.09V39.72c7.12,2.09,14.17,5.05,20.71,8.44l.38,310.61c7.88,57.61,78.56,78.15,116.22,32.52,6.92-8.39,14.78-25.9,14.78-36.77v-219.3Z"/>
  <path d="M760.46,1058.04c-213.2,1.48-403.65-159.91-448.41-365.76-6.22-28.6-15.86-87.64-7.88-114.68,20.29-68.7,123.64-58.55,128.48,17.73.45,103.08-1.07,206.55.76,309.38l19.06,18.96.38-213.41c4.66-87.94,124.44-89.88,131.88-4.23l-.07,304.96c2.37,1.42,19.54,8.96,20.31,8.17l-.04-815.12c2.76-49.87,35.36-62.55,78.47-70.26,17.57-3.14,35.54-5.37,53.39-6.18v920.29c0,.4,6.97.81,7.99.88,19.18,1.33,39.91-.82,59.17-.89l78.16-9.28-17.58,4.8c-31.81,5.01-67.92,14.1-99.86,14.63-1.4.02-2.82,0-4.22,0Z"/>
  <path d="M432.62,135.21v219.3c0,10.87-7.85,28.39-14.78,36.77-37.67,45.63-108.35,25.09-116.22-32.52l-.38-310.61c-6.54-3.39-13.59-6.35-20.71-8.44v821c0,7.83-5.68,22.24-9.78,29.09-14.54,24.27-36.96,29.33-62.86,34.31-19.18,3.69-38.77,6.4-58.32,7.16V10.99C99.89,6.99,50.76,14.76,1.69,21.12c-.12-1.3,2.06-1.32,3.02-1.61,21.41-6.5,48.68-10.44,71.03-13.47,193.04-26.22,383.95,90.09,464.91,263.24,25.45,54.43,46.49,133.96,44.09,194.29-3.19,80.32-118.91,86.35-130.9,7.47-2.71-105.45.73-211.55-1.74-316.85l-19.48-18.97Z"/>
</svg>